<mxfile host="65bd71144e">
    <diagram id="11akFfcmISNIMbsyofr7" name="Page-1">
        <mxGraphModel dx="1380" dy="1539" grid="1" gridSize="10" guides="1" tooltips="1" connect="1" arrows="1" fold="1" page="0" pageScale="1" pageWidth="850" pageHeight="1100" math="0" shadow="0">
            <root>
                <mxCell id="0"/>
                <mxCell id="1" parent="0"/>
                <mxCell id="4" style="edgeStyle=none;html=1;exitX=1;exitY=0.5;exitDx=0;exitDy=0;entryX=0;entryY=0.5;entryDx=0;entryDy=0;" edge="1" parent="1" source="2" target="3">
                    <mxGeometry relative="1" as="geometry">
                        <Array as="points">
                            <mxPoint x="360" y="200"/>
                        </Array>
                    </mxGeometry>
                </mxCell>
                <mxCell id="5" value="si 1 courbe" style="edgeLabel;html=1;align=center;verticalAlign=middle;resizable=0;points=[];" vertex="1" connectable="0" parent="4">
                    <mxGeometry x="-0.2" y="-3" relative="1" as="geometry">
                        <mxPoint x="-134" y="-13" as="offset"/>
                    </mxGeometry>
                </mxCell>
                <mxCell id="7" style="edgeStyle=none;html=1;exitX=1;exitY=0.75;exitDx=0;exitDy=0;entryX=0;entryY=0.5;entryDx=0;entryDy=0;" edge="1" parent="1" source="2" target="6">
                    <mxGeometry relative="1" as="geometry">
                        <Array as="points">
                            <mxPoint x="410" y="220"/>
                            <mxPoint x="410" y="360"/>
                        </Array>
                    </mxGeometry>
                </mxCell>
                <mxCell id="8" value="si 2 courbes" style="edgeLabel;html=1;align=center;verticalAlign=middle;resizable=0;points=[];rotation=0;" vertex="1" connectable="0" parent="7">
                    <mxGeometry x="-0.0743" y="1" relative="1" as="geometry">
                        <mxPoint x="-225" y="11" as="offset"/>
                    </mxGeometry>
                </mxCell>
                <mxCell id="2" value="Ajout d&#39;une nouvelle courbe dans spreadsheet" style="rounded=1;whiteSpace=wrap;html=1;" vertex="1" parent="1">
                    <mxGeometry x="-10" y="160" width="160" height="80" as="geometry"/>
                </mxCell>
                <mxCell id="3" value="setXCurve" style="rounded=0;whiteSpace=wrap;html=1;" vertex="1" parent="1">
                    <mxGeometry x="560" y="160" width="160" height="80" as="geometry"/>
                </mxCell>
                <mxCell id="6" value="pushYCurve" style="rounded=0;whiteSpace=wrap;html=1;" vertex="1" parent="1">
                    <mxGeometry x="560" y="320" width="160" height="80" as="geometry"/>
                </mxCell>
                <mxCell id="11" style="edgeStyle=none;html=1;exitX=1;exitY=0.5;exitDx=0;exitDy=0;entryX=0;entryY=0.5;entryDx=0;entryDy=0;" edge="1" parent="1" source="9" target="10">
                    <mxGeometry relative="1" as="geometry"/>
                </mxCell>
                <mxCell id="9" value="Suppression courbe dans spreadsheet" style="rounded=1;whiteSpace=wrap;html=1;" vertex="1" parent="1">
                    <mxGeometry x="-140" y="280" width="160" height="80" as="geometry"/>
                </mxCell>
                <mxCell id="13" style="edgeStyle=none;html=1;exitX=1;exitY=0.75;exitDx=0;exitDy=0;entryX=0;entryY=0.5;entryDx=0;entryDy=0;" edge="1" parent="1" source="10" target="12">
                    <mxGeometry relative="1" as="geometry">
                        <Array as="points">
                            <mxPoint x="380" y="340"/>
                            <mxPoint x="380" y="520"/>
                        </Array>
                    </mxGeometry>
                </mxCell>
                <mxCell id="17" value="Si Y" style="edgeLabel;html=1;align=center;verticalAlign=middle;resizable=0;points=[];" vertex="1" connectable="0" parent="13">
                    <mxGeometry x="0.1328" y="-2" relative="1" as="geometry">
                        <mxPoint x="-128" y="-119" as="offset"/>
                    </mxGeometry>
                </mxCell>
                <mxCell id="15" style="edgeStyle=none;html=1;exitX=1;exitY=0.25;exitDx=0;exitDy=0;" edge="1" parent="1" source="10">
                    <mxGeometry relative="1" as="geometry">
                        <mxPoint x="560" y="230" as="targetPoint"/>
                        <Array as="points">
                            <mxPoint x="480" y="300"/>
                            <mxPoint x="480" y="230"/>
                        </Array>
                    </mxGeometry>
                </mxCell>
                <mxCell id="16" value="si X" style="edgeLabel;html=1;align=center;verticalAlign=middle;resizable=0;points=[];" vertex="1" connectable="0" parent="15">
                    <mxGeometry x="-0.05" y="-2" relative="1" as="geometry">
                        <mxPoint x="-170" y="-22" as="offset"/>
                    </mxGeometry>
                </mxCell>
                <mxCell id="10" value="removeCurve" style="rounded=0;whiteSpace=wrap;html=1;" vertex="1" parent="1">
                    <mxGeometry x="70" y="280" width="160" height="80" as="geometry"/>
                </mxCell>
                <mxCell id="12" value="removeYCurve" style="rounded=0;whiteSpace=wrap;html=1;" vertex="1" parent="1">
                    <mxGeometry x="560" y="480" width="160" height="80" as="geometry"/>
                </mxCell>
                <mxCell id="22" style="edgeStyle=none;html=1;entryX=0.006;entryY=0.175;entryDx=0;entryDy=0;exitX=1.006;exitY=0.125;exitDx=0;exitDy=0;exitPerimeter=0;entryPerimeter=0;" edge="1" parent="1" source="20" target="3">
                    <mxGeometry relative="1" as="geometry">
                        <Array as="points">
                            <mxPoint x="470" y="50"/>
                            <mxPoint x="470" y="174"/>
                        </Array>
                    </mxGeometry>
                </mxCell>
                <mxCell id="23" value="si x change" style="edgeLabel;html=1;align=center;verticalAlign=middle;resizable=0;points=[];" vertex="1" connectable="0" parent="22">
                    <mxGeometry x="-0.1014" y="4" relative="1" as="geometry">
                        <mxPoint x="-153" y="14" as="offset"/>
                    </mxGeometry>
                </mxCell>
                <mxCell id="27" style="edgeStyle=none;html=1;entryX=0;entryY=0.25;entryDx=0;entryDy=0;" edge="1" parent="1" source="20" target="6">
                    <mxGeometry relative="1" as="geometry">
                        <mxPoint x="430" y="100" as="targetPoint"/>
                        <Array as="points">
                            <mxPoint x="440" y="80"/>
                            <mxPoint x="440" y="340"/>
                        </Array>
                    </mxGeometry>
                </mxCell>
                <mxCell id="28" style="edgeStyle=none;html=1;entryX=0;entryY=0.25;entryDx=0;entryDy=0;exitX=1;exitY=0.75;exitDx=0;exitDy=0;" edge="1" parent="1" source="20" target="12">
                    <mxGeometry relative="1" as="geometry">
                        <Array as="points">
                            <mxPoint x="320" y="100"/>
                            <mxPoint x="320" y="500"/>
                        </Array>
                    </mxGeometry>
                </mxCell>
                <mxCell id="20" value="Modification courbes dans modal&lt;div&gt;(ne pas redraw plusieurs fois)&lt;/div&gt;&lt;div&gt;&lt;br&gt;&lt;/div&gt;" style="rounded=1;whiteSpace=wrap;html=1;" vertex="1" parent="1">
                    <mxGeometry x="120" y="40" width="160" height="80" as="geometry"/>
                </mxCell>
                <mxCell id="29" value="updateValues&lt;div&gt;&lt;br&gt;&lt;/div&gt;&lt;div&gt;via serie.setData&lt;/div&gt;" style="rounded=0;whiteSpace=wrap;html=1;" vertex="1" parent="1">
                    <mxGeometry x="840" y="-80" width="160" height="80" as="geometry"/>
                </mxCell>
                <mxCell id="30" value="updateCurves" style="rounded=0;whiteSpace=wrap;html=1;" vertex="1" parent="1">
                    <mxGeometry x="840" y="290" width="160" height="80" as="geometry"/>
                </mxCell>
                <mxCell id="32" style="edgeStyle=none;html=1;entryX=0;entryY=0.5;entryDx=0;entryDy=0;" edge="1" parent="1" source="31" target="29">
                    <mxGeometry relative="1" as="geometry"/>
                </mxCell>
                <mxCell id="31" value="Modification de valeurs dans spreadsheet" style="rounded=1;whiteSpace=wrap;html=1;" vertex="1" parent="1">
                    <mxGeometry x="120" y="-80" width="160" height="80" as="geometry"/>
                </mxCell>
                <mxCell id="57" value="DONNER UNE ID AUX SERIES POUR UTILISER LA METHODE .get(id) de highcharts" style="rounded=0;whiteSpace=wrap;html=1;" vertex="1" parent="1">
                    <mxGeometry x="200" y="-220" width="430" height="100" as="geometry"/>
                </mxCell>
            </root>
        </mxGraphModel>
    </diagram>
</mxfile>